HIERARCHY
ROOT SpineBase
{
  OFFSET 0.000000 0.000000 0.000000
  CHANNELS 6 Xposition Yposition Zposition Zrotation Xrotation Yrotation
  JOINT SpineMid
  {
    OFFSET 0.000000 29.866055 0.000000
    CHANNELS 3 Zrotation Xrotation Yrotation
    JOINT SpineShoulder
    {
      OFFSET 0.174648 22.123964 -0.711143
      CHANNELS 3 Zrotation Xrotation Yrotation
      JOINT Neck
      {
        OFFSET 0.072110 7.291267 -0.500876
        CHANNELS 3 Zrotation Xrotation Yrotation
        JOINT Head
        {
          OFFSET 2.184272 12.497318 0.345017
          CHANNELS 3 Zrotation Xrotation Yrotation
          End Site
          {
            OFFSET 0 0 0
          }
        }
      }
      JOINT ShoulderLeft
      {
        OFFSET -11.359679 -2.416981 -9.246875
        CHANNELS 3 Zrotation Xrotation Yrotation
        JOINT ElbowLeft
        {
          OFFSET -7.628768 -21.895805 -1.296363
          CHANNELS 3 Zrotation Xrotation Yrotation
          JOINT WristLeft
          {
            OFFSET 0.617934 -21.259487 -5.897948
            CHANNELS 3 Zrotation Xrotation Yrotation
            JOINT HandLeft
            {
              OFFSET 0.259171 -4.864893 0.455518
              CHANNELS 3 Zrotation Xrotation Yrotation
              JOINT HandTipLeft
              {
                OFFSET 0.393245 -6.480770 -1.156848
                CHANNELS 3 Zrotation Xrotation Yrotation
                End Site
                {
                  OFFSET 0 0 0
                }
              }
              JOINT ThumbLeft
              {
                OFFSET -2.727153 -1.291448 -1.115109
                CHANNELS 3 Zrotation Xrotation Yrotation
                End Site
                {
                  OFFSET 0 0 0
                }
              }
            }
          }
        }
      }
      JOINT ShoulderRight
      {
        OFFSET 12.740571 -4.639020 6.479143
        CHANNELS 3 Zrotation Xrotation Yrotation
        JOINT ElbowRight
        {
          OFFSET -2.658083 -22.034925 -12.700798
          CHANNELS 3 Zrotation Xrotation Yrotation
          JOINT WristRight
          {
            OFFSET 4.679779 -25.863259 9.005942
            CHANNELS 3 Zrotation Xrotation Yrotation
            JOINT HandRight
            {
              OFFSET -0.838104 -1.385859 -0.629335
              CHANNELS 3 Zrotation Xrotation Yrotation
              JOINT HandTipRight
              {
                OFFSET 0.461007 -2.138642 -5.414312
                CHANNELS 3 Zrotation Xrotation Yrotation
                End Site
                {
                  OFFSET 0 0 0
                }
              }
              JOINT ThumbRight
              {
                OFFSET -0.937001 2.041089 -0.497031
                CHANNELS 3 Zrotation Xrotation Yrotation
                End Site
                {
                  OFFSET 0 0 0
                }
              }
            }
          }
        }
      }
    }
  }
  JOINT HipLeft
  {
    OFFSET -5.908332 0.977980 -6.206193
    CHANNELS 3 Zrotation Xrotation Yrotation
    JOINT KneeLeft
    {
      OFFSET -3.252963 -29.069227 1.323986
      CHANNELS 3 Zrotation Xrotation Yrotation
      JOINT AnkleLeft
      {
        OFFSET -9.458023 -32.579477 3.049893
        CHANNELS 3 Zrotation Xrotation Yrotation
        JOINT FootLeft
        {
          OFFSET 2.720923 -5.631212 -4.324520
          CHANNELS 3 Zrotation Xrotation Yrotation
          End Site
          {
            OFFSET 0 0 0
          }
        }
      }
    }
  }
  JOINT HipRight
  {
    OFFSET 6.021786 0.370716 0.048588
    CHANNELS 3 Zrotation Xrotation Yrotation
    JOINT KneeRight
    {
      OFFSET -4.141856 -29.516115 5.754617
      CHANNELS 3 Zrotation Xrotation Yrotation
      JOINT AnkleRight
      {
        OFFSET -8.293238 -34.420038 9.131104
        CHANNELS 3 Zrotation Xrotation Yrotation
        JOINT FootRight
        {
          OFFSET 2.749581 -7.358060 -4.591883
          CHANNELS 3 Zrotation Xrotation Yrotation
          End Site
          {
            OFFSET 0 0 0
          }
        }
      }
    }
  }
}
MOTION
Frames: 16
Frame Time: 0.033333
-3.915927 72.616018 356.723303 -0.000000 0.000000 -27.667344 0.000000 0.000000 27.667344 -0.000000 0.000000 0.000000 -0.000000 0.000000 0.000000 0.000000 0.000000 0.000000 -0.000000 0.000000 0.000000 -0.000000 0.000000 0.000000 -0.000000 0.000000 0.000000 -0.000000 0.000000 0.000000 0.000000 0.000000 0.000000 0.000000 0.000000 0.000000 -0.000000 0.000000 0.000000 -0.000000 0.000000 0.000000 -0.000000 0.000000 0.000000 -0.000000 0.000000 0.000000 0.000000 0.000000 0.000000 0.000000 0.000000 0.000000 0.000000 0.000000 27.667344 -0.000000 0.000000 0.000000 -0.000000 0.000000 0.000000 0.000000 0.000000 0.000000 0.000000 0.000000 27.667344 -0.000000 0.000000 0.000000 -0.000000 0.000000 0.000000 0.000000 0.000000 0.000000
-3.954913 72.600166 356.617418 -0.038270 0.160275 -27.105224 0.107092 -0.125235 27.105394 -0.000000 0.000000 0.000000 -0.000000 0.000000 0.000000 0.000000 0.000000 0.000000 -0.000000 0.000000 0.000000 2.580388 0.103533 -0.714656 0.813080 -0.065230 1.033976 -2.565826 -2.038320 -0.577424 0.000000 0.000000 0.000000 0.000000 0.000000 0.000000 1.100680 -1.579594 -0.432649 0.292192 -2.433402 0.228476 -1.392097 4.009195 0.293916 0.352263 -17.212873 -7.402027 0.000000 0.000000 0.000000 0.000000 0.000000 0.000000 0.107092 -0.125235 27.105394 -0.000000 0.000000 0.000000 4.809751 13.395276 2.017903 0.000000 0.000000 0.000000 0.107092 -0.125235 27.105394 -0.000000 0.000000 0.000000 -1.254725 -4.550499 -0.996908 0.000000 0.000000 0.000000
-3.972773 72.594462 356.531968 -0.050886 0.287070 -26.662831 0.174296 -0.233708 26.663314 -0.000000 0.000000 0.000000 -0.000000 0.000000 0.000000 0.000000 0.000000 0.000000 1.003548 -0.156542 -0.003516 3.876512 0.393094 -1.362430 1.272704 0.133424 1.935552 -4.595430 -4.009617 -1.063841 0.000000 0.000000 0.000000 0.000000 0.000000 0.000000 2.306811 -3.364143 -0.873006 0.172019 -3.898976 0.556541 -1.848683 5.925758 1.078267 -2.719067 -32.503634 -15.967256 0.000000 0.000000 0.000000 0.000000 0.000000 0.000000 0.174296 -0.233708 26.663314 -0.000000 0.000000 0.000000 7.203422 20.263164 2.625421 0.000000 0.000000 0.000000 0.174296 -0.233708 26.663314 -0.000000 0.000000 0.000000 -2.352727 -8.672277 -2.070498 0.000000 0.000000 0.000000
-3.969509 72.598907 356.466952 -0.037848 0.380390 -26.341568 0.202707 -0.324098 26.342267 -0.000000 0.000000 0.000000 -0.000000 0.000000 0.000000 0.000000 0.000000 0.000000 1.397011 -0.132698 -0.035015 5.491621 0.543616 -1.898567 1.425452 0.553048 2.691771 -6.109868 -5.939378 -1.481447 0.000000 0.000000 0.000000 0.000000 0.000000 0.000000 3.601668 -5.336116 -1.304539 -0.380527 -4.359019 0.959929 -1.350087 7.362522 1.232155 -8.196792 -43.977285 -23.763299 0.000000 0.000000 0.000000 0.000000 0.000000 0.000000 0.202707 -0.324098 26.342267 0.790022 -0.417091 0.198248 7.657221 23.818990 2.518624 0.000000 0.000000 0.000000 0.202707 -0.324098 26.342267 -0.000000 0.000000 0.000000 -3.220091 -12.193271 -3.149972 0.000000 0.000000 0.000000
-3.945119 72.613501 356.422370 0.000852 0.440238 -26.142100 0.193207 -0.395578 26.142764 -0.000000 0.000000 0.000000 -0.487605 0.670561 -0.100795 0.000000 0.000000 0.000000 1.716097 -0.039881 -0.087577 6.885592 0.675652 -2.328519 1.314999 1.162211 3.299316 -7.133125 -7.847062 -1.842704 0.000000 0.000000 0.000000 0.000000 0.000000 0.000000 4.960343 -7.461220 -1.708977 -1.371633 -3.824424 1.428500 -0.088493 7.726165 1.186047 -14.267658 -50.680747 -29.988576 0.000000 0.000000 0.000000 0.000000 0.000000 0.000000 -0.630323 -0.514120 26.071528 1.690764 -0.691255 0.285229 7.841499 24.516624 2.494151 0.000000 0.000000 0.000000 0.804168 -0.936557 26.316083 -0.307846 0.755721 -0.164187 -3.782302 -14.986945 -4.160127 0.000000 0.000000 0.000000
-3.899603 72.638242 356.398222 0.065222 0.466610 -26.064401 0.146433 -0.447813 26.064707 -0.000000 0.000000 0.000000 -0.591845 0.927834 -0.140879 0.000000 0.000000 0.000000 1.959612 0.122369 -0.161713 8.059278 0.796546 -2.648560 0.977703 1.940633 3.760990 -7.684740 -9.747261 -2.151505 0.000000 0.000000 0.000000 0.000000 0.000000 0.000000 6.350521 -9.688190 -2.068606 -2.797921 -2.337672 1.967833 1.984269 6.937458 0.987781 -19.267567 -53.682067 -33.408137 0.000000 0.000000 0.000000 0.000000 0.000000 0.000000 -0.801410 -0.635724 25.985555 1.864087 -0.642297 0.282094 7.305048 22.927843 2.391809 0.000000 0.000000 0.000000 0.146433 -0.447813 26.064707 -0.000000 0.000000 0.000000 -3.972916 -16.972342 -5.032675 0.000000 0.000000 0.000000
-3.785252 72.661878 356.389463 0.235286 0.447026 -25.895954 -0.016431 -0.504897 25.894964 -0.000000 0.000000 0.000000 -0.813755 1.372300 -0.207323 0.000000 0.000000 0.000000 2.016653 0.346660 -0.247767 9.288970 1.110082 -2.925418 -1.407380 3.206508 3.981916 -6.360898 -12.371282 -2.228788 0.000000 0.000000 0.000000 0.000000 0.000000 0.000000 8.748372 -14.028101 -2.470837 -5.167051 0.425179 2.965175 5.008188 6.111015 0.700146 -24.603760 -55.693026 -34.742694 0.000000 0.000000 0.000000 0.000000 0.000000 0.000000 -1.057256 -0.831489 25.815777 1.883649 -0.317168 0.193531 3.174600 10.410796 1.318870 0.000000 0.000000 0.000000 -0.016431 -0.504897 25.894964 -0.000000 0.000000 0.000000 -4.047868 -18.746344 -5.889517 0.000000 0.000000 0.000000
-3.702024 72.731386 356.431680 0.343739 0.370928 -26.232351 -0.144389 -0.484659 26.230627 -0.000000 0.000000 0.000000 -0.892100 1.719549 -0.262082 0.000000 0.000000 0.000000 2.032574 0.537397 -0.319006 9.153573 1.202718 -2.807985 -0.578576 6.298663 3.910001 -6.933986 -16.411636 -2.650353 0.000000 0.000000 0.000000 0.000000 0.000000 0.000000 10.602382 -17.133550 -2.709689 -8.304461 3.355334 3.845672 11.720192 2.611472 -0.032022 -26.743775 -52.692053 -29.422704 0.000000 0.000000 0.000000 0.000000 0.000000 0.000000 -1.275278 -0.890191 26.147562 1.193776 -0.134443 0.070898 -3.718938 -9.795358 -2.401747 0.000000 0.000000 0.000000 -0.144389 -0.484659 26.230627 -0.000000 0.000000 0.000000 -3.269615 -16.689622 -5.253451 0.000000 0.000000 0.000000
-3.623525 72.812354 356.508975 0.412748 0.264487 -26.711627 -0.249821 -0.421786 26.709755 -0.000000 0.000000 0.000000 -0.770769 2.022008 -0.318031 0.000000 0.000000 0.000000 2.072086 0.874080 -0.445651 9.143005 1.190199 -2.657299 -1.031156 7.705649 3.857184 -4.703292 -18.963345 -2.608752 0.000000 0.000000 0.000000 0.000000 0.000000 0.000000 12.160146 -19.551374 -2.872441 -12.570408 10.141259 5.502873 20.179683 -9.396707 3.868821 -27.155513 -37.975150 -20.510195 0.000000 0.000000 0.000000 0.000000 0.000000 0.000000 -1.395009 -0.904274 26.630759 1.239888 -0.082135 0.066633 -10.727088 -23.851131 -7.188554 0.000000 0.000000 0.000000 -0.249821 -0.421786 26.709755 -0.000000 0.000000 0.000000 -1.058387 -16.670635 -6.366564 0.000000 0.000000 0.000000
-3.460988 72.903201 356.623075 0.584405 0.121547 -27.324933 -0.463410 -0.376240 27.322791 -0.000000 0.000000 0.000000 -0.573577 2.195316 -0.356416 0.000000 0.000000 0.000000 2.123532 1.309289 -0.609718 9.701986 1.976383 -2.676205 -0.512643 4.821045 4.203421 -1.647027 -15.665429 -2.554422 0.000000 0.000000 0.000000 0.000000 0.000000 0.000000 12.206345 -19.364956 -2.939814 -14.689907 14.624669 6.446329 28.698841 -21.184135 10.566517 -28.786533 -18.954566 -11.078339 0.000000 0.000000 0.000000 0.000000 0.000000 0.000000 -1.574258 -1.004179 27.256790 1.275016 0.049333 0.052071 -12.758017 -27.458958 -8.973962 0.000000 0.000000 0.000000 -1.506264 -0.611875 27.074485 1.035772 -0.264895 0.241708 0.267690 -17.073912 -7.215731 0.000000 0.000000 0.000000
-3.369401 72.955052 356.805476 0.611160 -0.053406 -27.858884 -0.565287 -0.238374 27.857993 -0.000000 0.000000 0.000000 -0.196373 2.124652 -0.362030 0.000000 0.000000 0.000000 2.296238 2.203525 -0.953516 12.193455 1.252815 -2.916491 -0.517716 3.206290 5.184141 -1.054681 -12.695942 -3.048841 0.000000 0.000000 0.000000 0.000000 0.000000 0.000000 11.252853 -17.570299 -2.920340 -14.064113 15.970617 6.335170 29.846441 -24.049649 11.523822 -28.616588 -16.173835 -6.200612 0.000000 0.000000 0.000000 0.000000 0.000000 0.000000 -1.873902 -0.807942 27.769267 1.423208 -0.105865 0.078092 -4.068353 -12.219370 -3.592663 0.000000 0.000000 0.000000 -1.870168 -0.093670 27.538969 1.090163 -0.731606 0.322203 1.537681 -16.929012 -7.775557 0.000000 0.000000 0.000000
-3.359709 72.971011 356.878821 0.548855 -0.124600 -28.337132 -0.542228 -0.150851 28.337015 -0.000000 0.000000 0.000000 -0.054617 2.077770 -0.360481 0.000000 0.000000 0.000000 2.497755 3.370967 -1.404391 16.767682 0.773539 -3.512460 -4.839023 -0.817505 6.617021 -0.454139 -5.960281 -3.485044 0.000000 0.000000 0.000000 0.000000 0.000000 0.000000 9.054041 -13.813371 -2.667400 -10.230322 15.217678 5.326184 19.269179 -11.507548 -1.295224 -19.464967 -31.526101 -3.221153 0.000000 0.000000 0.000000 0.000000 0.000000 0.000000 -1.865871 -0.827626 28.254487 1.486260 -0.030608 0.071622 1.723319 1.652995 -0.539729 0.000000 0.000000 0.000000 -1.815958 0.184418 28.023468 0.966961 -0.894343 0.321468 -0.535959 -20.098965 -8.264875 0.000000 0.000000 0.000000
-3.462726 72.966939 356.943838 0.324089 -0.200653 -28.960235 -0.380720 0.018636 28.960865 -0.000000 0.000000 0.000000 -0.005860 1.815554 -0.316951 0.000000 0.000000 0.000000 2.651383 4.619282 -1.884776 22.904907 -1.490618 -3.966108 -7.308338 -6.329886 9.139169 8.209626 -3.069373 -6.065406 0.000000 0.000000 0.000000 0.000000 0.000000 0.000000 4.476407 -6.246825 -1.642071 -3.282778 12.517658 3.651818 5.158024 1.853011 -9.706586 -2.658959 -47.068113 4.451463 0.000000 0.000000 0.000000 0.000000 0.000000 0.000000 -1.575707 -0.743996 28.898864 1.414714 0.090050 0.053325 1.639843 1.120768 -0.723449 0.000000 0.000000 0.000000 -1.288625 0.592530 28.732634 0.520317 -0.939633 0.237340 2.762894 -14.365118 -7.269721 0.000000 0.000000 0.000000
-3.759447 72.947501 356.977190 -0.149242 -0.280768 -29.668910 -0.009300 0.317833 29.668570 -0.000000 0.000000 0.000000 -0.095437 1.605159 -0.276447 0.000000 0.000000 0.000000 2.771188 5.883327 -2.370589 29.684306 -4.895579 -3.862694 -5.057655 -8.145291 12.798177 9.621367 1.197383 -9.998679 0.000000 0.000000 0.000000 0.000000 0.000000 0.000000 3.244985 -4.724020 -1.199392 -0.066432 17.099419 4.428414 -7.341846 10.248860 -14.315740 16.166554 -56.070128 16.627373 0.000000 0.000000 0.000000 0.000000 0.000000 0.000000 -0.729272 -0.468753 29.658009 1.014885 0.327244 0.006714 4.010237 8.920634 0.859150 0.000000 0.000000 0.000000 -0.011041 1.278210 29.643710 -0.473527 -0.835533 0.021431 1.614559 -12.631998 -5.942708 0.000000 0.000000 0.000000
-4.202549 72.921148 356.974060 -0.790268 -0.362295 -30.389708 0.498453 0.712271 30.384111 -0.000000 0.000000 0.000000 -0.457954 1.535454 -0.249335 0.000000 0.000000 0.000000 2.856386 7.038541 -2.813892 37.698681 -7.486673 -3.724602 -4.984076 -7.080567 16.158480 6.454417 -2.618796 -10.538068 0.000000 0.000000 0.000000 0.000000 0.000000 0.000000 3.961432 -7.181259 -1.217220 -0.635534 30.540332 6.598553 -12.497033 2.863147 -17.818998 25.679431 -64.733364 27.232802 0.000000 0.000000 0.000000 0.000000 0.000000 0.000000 0.498453 0.712271 30.384111 -0.000000 0.000000 0.000000 2.615208 6.385204 0.886080 0.000000 0.000000 0.000000 1.334493 2.130112 30.531925 -1.440430 -0.796281 -0.178561 2.560617 -6.858335 -4.128874 0.000000 0.000000 0.000000
-4.666689 72.885258 356.935101 -1.416408 -0.424283 -31.030921 0.995163 1.093600 31.016178 -0.000000 0.000000 0.000000 -0.853623 1.604116 -0.244454 0.000000 0.000000 0.000000 2.698022 7.743921 -3.056709 45.742582 -9.278436 -3.728024 -7.874069 -2.967291 18.008158 5.511754 2.632390 -13.203706 0.000000 0.000000 0.000000 0.000000 0.000000 0.000000 5.107192 -10.025740 -1.360997 -4.364301 48.760041 10.952534 -12.727317 -11.163028 -23.952627 24.979926 -62.664458 21.880624 0.000000 0.000000 0.000000 0.000000 0.000000 0.000000 0.995163 1.093600 31.016178 -0.000000 0.000000 0.000000 -0.620832 -1.458244 -0.238724 0.000000 0.000000 0.000000 2.997219 2.812679 31.394486 -2.567616 0.467051 -0.663489 6.151155 5.053453 -1.583351 0.000000 0.000000 0.000000
